<svg width="102" height="102" viewBox="0 0 102 102" fill="none" xmlns="http://www.w3.org/2000/svg">
<path d="M99.9515 42.888L87.088 41.2809C86.2503 38.157 85.0075 35.1561 83.3911 32.3547L91.3536 22.1173C91.5966 21.8045 91.717 21.4137 91.6922 21.0184C91.6673 20.6231 91.499 20.2505 91.2188 19.9706L82.0229 10.7845C81.7428 10.5045 81.37 10.3365 80.9748 10.3119C80.5795 10.2874 80.1888 10.4081 79.8763 10.6512L69.6387 18.6138C66.8394 17.001 63.8414 15.761 60.7207 14.925L59.112 2.05337C59.064 1.65955 58.8736 1.29689 58.5766 1.03377C58.2797 0.770653 57.8967 0.625259 57.5 0.625H44.5C44.104 0.625112 43.7217 0.769822 43.4248 1.03194C43.128 1.29406 42.9371 1.65556 42.888 2.0485L41.2793 14.925C38.1559 15.7611 35.1559 17.0041 32.3564 18.6219L22.1189 10.6594C21.8063 10.4162 21.4156 10.2955 21.0204 10.3201C20.6251 10.3446 20.2524 10.5126 19.9722 10.7926L10.7845 19.9771C10.5043 20.257 10.3359 20.6296 10.3111 21.0249C10.2863 21.4202 10.4066 21.811 10.6496 22.1237L18.6121 32.3613C17.0002 35.1614 15.7607 38.1599 14.925 41.2809L2.05337 42.888C1.65955 42.936 1.29689 43.1264 1.03377 43.4234C0.770653 43.7203 0.625259 44.1033 0.625 44.5V57.5C0.625112 57.896 0.769822 58.2783 1.03194 58.5752C1.29406 58.872 1.65556 59.0629 2.0485 59.112L14.9201 60.7191C15.7572 63.843 16.9995 66.8438 18.6154 69.6452L10.6529 79.8827C10.4097 80.1953 10.289 80.586 10.3136 80.9813C10.3381 81.3765 10.5061 81.7493 10.7861 82.0294L19.9788 91.222C20.2589 91.502 20.6316 91.67 21.0269 91.6946C21.4221 91.7191 21.8128 91.5984 22.1254 91.3552L32.3629 83.3927C35.1635 85.0079 38.1632 86.2502 41.2857 87.088L42.8945 99.9531C42.9438 100.345 43.134 100.705 43.4294 100.967C43.7248 101.228 44.1054 101.373 44.5 101.375H57.5C57.896 101.375 58.2783 101.23 58.5752 100.968C58.872 100.706 59.0629 100.344 59.112 99.9515L60.7191 87.088C63.8434 86.2514 66.8443 85.0085 69.6452 83.3911L79.8827 91.3536C80.1953 91.5968 80.586 91.7175 80.9813 91.6929C81.3765 91.6684 81.7493 91.5004 82.0294 91.2204L91.222 82.0278C91.5022 81.7478 91.6706 81.3752 91.6954 80.9799C91.7202 80.5847 91.5999 80.1939 91.3569 79.8811L83.3944 69.6436C85.0097 66.8419 86.252 63.8411 87.0896 60.7175L99.9548 59.1104C100.347 59.0606 100.707 58.8696 100.969 58.5732C101.23 58.2768 101.375 57.8952 101.375 57.5V44.5C101.375 44.104 101.23 43.7217 100.968 43.4248C100.706 43.128 100.344 42.9371 99.9515 42.888ZM51 68.875C47.4647 68.875 44.0087 67.8266 41.0692 65.8625C38.1297 63.8984 35.8386 61.1067 34.4857 57.8405C33.1327 54.5742 32.7788 50.9802 33.4685 47.5128C34.1582 44.0453 35.8606 40.8603 38.3605 38.3605C40.8603 35.8606 44.0453 34.1582 47.5128 33.4685C50.9802 32.7788 54.5742 33.1327 57.8405 34.4857C61.1067 35.8386 63.8984 38.1297 65.8625 41.0692C67.8266 44.0087 68.875 47.4647 68.875 51C68.875 55.7407 66.9917 60.2873 63.6395 63.6395C60.2873 66.9917 55.7407 68.875 51 68.875Z" fill="#D7E8F6"/>
</svg>
