<svg width="25" height="25" viewBox="0 0 25 25" fill="none" xmlns="http://www.w3.org/2000/svg">
<circle cx="12.5" cy="12.5" r="12.5" fill="#FEEFF2"/>
<path d="M10.875 6.54166H7.62501C7.0267 6.54166 6.54167 7.02669 6.54167 7.625V10.875C6.54167 11.4733 7.0267 11.9583 7.62501 11.9583H10.875C11.4733 11.9583 11.9583 11.4733 11.9583 10.875V7.625C11.9583 7.02669 11.4733 6.54166 10.875 6.54166Z" fill="#F24A73"/>
<path d="M18.6902 8.50141L16.498 6.30983C16.2994 6.11196 16.0304 6.00087 15.75 6.00087C15.4696 6.00087 15.2006 6.11196 15.002 6.30983L12.8098 8.50141C12.6119 8.70027 12.5008 8.96942 12.5008 9.25C12.5008 9.53057 12.6119 9.79973 12.8098 9.99858L15.002 12.1907C15.2006 12.3886 15.4696 12.4997 15.75 12.4997C16.0304 12.4997 16.2994 12.3886 16.498 12.1907L18.6902 9.99912C18.8883 9.80024 18.9995 9.53097 18.9995 9.25027C18.9995 8.96956 18.8883 8.70029 18.6902 8.50141V8.50141Z" fill="#F24A73"/>
<path d="M17.375 13.0417H14.125C13.5267 13.0417 13.0417 13.5267 13.0417 14.125V17.375C13.0417 17.9733 13.5267 18.4583 14.125 18.4583H17.375C17.9733 18.4583 18.4583 17.9733 18.4583 17.375V14.125C18.4583 13.5267 17.9733 13.0417 17.375 13.0417Z" fill="#F24A73"/>
<path d="M10.875 13.0417H7.62501C7.0267 13.0417 6.54167 13.5267 6.54167 14.125V17.375C6.54167 17.9733 7.0267 18.4583 7.62501 18.4583H10.875C11.4733 18.4583 11.9583 17.9733 11.9583 17.375V14.125C11.9583 13.5267 11.4733 13.0417 10.875 13.0417Z" fill="#F24A73"/>
</svg>
