<svg width="25" height="25" viewBox="0 0 25 25" fill="none" xmlns="http://www.w3.org/2000/svg">
<circle cx="12.5" cy="12.5" r="12.5" fill="#F3EFFC"/>
<path d="M9.651 17.3445H6L16.3445 7V10.651" stroke="#7239EA" stroke-width="2" stroke-miterlimit="10" stroke-linecap="square"/>
<path d="M15.1275 17.953C16.1357 17.953 16.953 17.1357 16.953 16.1275C16.953 15.1193 16.1357 14.302 15.1275 14.302C14.1193 14.302 13.302 15.1193 13.302 16.1275C13.302 17.1357 14.1193 17.953 15.1275 17.953Z" stroke="#7239EA" stroke-width="2" stroke-miterlimit="10" stroke-linecap="square"/>
<path d="M15.1274 14.302V13.085" stroke="#7239EA" stroke-width="2" stroke-miterlimit="10" stroke-linecap="square"/>
<path d="M16.4181 14.8369L17.2791 13.9758" stroke="#7239EA" stroke-width="2" stroke-miterlimit="10" stroke-linecap="square"/>
<path d="M16.953 16.1274H18.17" stroke="#7239EA" stroke-width="2" stroke-miterlimit="10" stroke-linecap="square"/>
<path d="M16.4181 17.4181L17.2791 18.2791" stroke="#7239EA" stroke-width="2" stroke-miterlimit="10" stroke-linecap="square"/>
<path d="M15.1274 17.953V19.17" stroke="#7239EA" stroke-width="2" stroke-miterlimit="10" stroke-linecap="square"/>
<path d="M13.8369 17.4181L12.9758 18.2791" stroke="#7239EA" stroke-width="2" stroke-miterlimit="10" stroke-linecap="square"/>
<path d="M13.3021 16.1274H12.0851" stroke="#7239EA" stroke-width="2" stroke-miterlimit="10" stroke-linecap="square"/>
<path d="M13.8369 14.8369L12.9758 13.9758" stroke="#7239EA" stroke-width="2" stroke-miterlimit="10" stroke-linecap="square"/>
</svg>
