<svg width="25" height="25" viewBox="0 0 25 25" fill="none" xmlns="http://www.w3.org/2000/svg">
<circle cx="12.5" cy="12.5" r="12.5" fill="#F4F3FE"/>
<path d="M13.125 6.28125V8.175C15.2438 8.48125 16.875 10.2937 16.875 12.5C16.875 13.0625 16.7625 13.5937 16.575 14.0875L18.2 15.0437C18.55 14.2687 18.75 13.4062 18.75 12.5C18.75 9.2625 16.2813 6.59375 13.125 6.28125V6.28125ZM12.5 16.875C10.0813 16.875 8.125 14.9187 8.125 12.5C8.125 10.2937 9.75625 8.48125 11.875 8.175V6.28125C8.7125 6.59375 6.25 9.25625 6.25 12.5C6.25 15.95 9.04375 18.75 12.4937 18.75C14.5625 18.75 16.3937 17.7437 17.5312 16.1937L15.9063 15.2375C15.4985 15.7494 14.9804 16.1626 14.3906 16.4461C13.8007 16.7297 13.1544 16.8763 12.5 16.875V16.875Z" fill="#7467FD"/>
</svg>
