<svg width="25" height="25" viewBox="0 0 25 25" fill="none" xmlns="http://www.w3.org/2000/svg">
<circle cx="12.5" cy="12.5" r="12.5" fill="#F0FBF6"/>
<path d="M7.8125 16.25H5.9375C5.76491 16.25 5.625 16.3899 5.625 16.5625V19.0625C5.625 19.2351 5.76491 19.375 5.9375 19.375H7.8125C7.98509 19.375 8.125 19.2351 8.125 19.0625V16.5625C8.125 16.3899 7.98509 16.25 7.8125 16.25Z" fill="#4FCC88"/>
<path d="M11.5625 11.875H9.6875C9.51491 11.875 9.375 12.0149 9.375 12.1875V19.0625C9.375 19.2351 9.51491 19.375 9.6875 19.375H11.5625C11.7351 19.375 11.875 19.2351 11.875 19.0625V12.1875C11.875 12.0149 11.7351 11.875 11.5625 11.875Z" fill="#4FCC88"/>
<path d="M15.3125 16.25H13.4375C13.2649 16.25 13.125 16.3899 13.125 16.5625V19.0625C13.125 19.2351 13.2649 19.375 13.4375 19.375H15.3125C15.4851 19.375 15.625 19.2351 15.625 19.0625V16.5625C15.625 16.3899 15.4851 16.25 15.3125 16.25Z" fill="#4FCC88"/>
<path d="M19.0625 11.875H17.1875C17.0149 11.875 16.875 12.0149 16.875 12.1875V19.0625C16.875 19.2351 17.0149 19.375 17.1875 19.375H19.0625C19.2351 19.375 19.375 19.2351 19.375 19.0625V12.1875C19.375 12.0149 19.2351 11.875 19.0625 11.875Z" fill="#4FCC88"/>
<path d="M18.3081 5.80813L14.375 9.74125L11.0669 6.43313C10.9497 6.31596 10.7907 6.25014 10.625 6.25014C10.4593 6.25014 10.3003 6.31596 10.1831 6.43313L5.80813 10.8081C5.74844 10.8658 5.70082 10.9347 5.66807 11.011C5.63531 11.0873 5.61807 11.1693 5.61735 11.2523C5.61663 11.3352 5.63244 11.4175 5.66387 11.4944C5.69529 11.5712 5.7417 11.6409 5.80038 11.6996C5.85907 11.7583 5.92885 11.8047 6.00566 11.8361C6.08247 11.8676 6.16477 11.8834 6.24776 11.8827C6.33074 11.8819 6.41276 11.8647 6.48901 11.8319C6.56526 11.7992 6.63423 11.7516 6.69188 11.6919L10.625 7.75875L13.9331 11.0669C14.0503 11.184 14.2093 11.2499 14.375 11.2499C14.5407 11.2499 14.6997 11.184 14.8169 11.0669L19.1919 6.69188C19.3057 6.574 19.3687 6.41612 19.3673 6.25225C19.3659 6.08838 19.3001 5.93162 19.1843 5.81574C19.0684 5.69986 18.9116 5.63413 18.7478 5.63271C18.5839 5.63128 18.426 5.69428 18.3081 5.80813V5.80813Z" fill="#4FCC88"/>
</svg>
