<svg width="23" height="34" viewBox="0 0 23 34" fill="none" xmlns="http://www.w3.org/2000/svg">
<path d="M6.27974 7.0506C16.7005 2.55722 27.4862 -0.142044 13.0585 13.8006M0.475627 7.70529L2.86424 10.8036C5.62431 9.4811 8.68263 8.1447 11.4529 7.12976C14.1226 6.15166 16.3212 5.55018 17.7051 5.44309C17.4236 5.9505 16.9519 6.64499 16.2075 7.55548C15.1661 8.82916 13.6791 10.4205 11.6519 12.3786C10.2378 13.7446 8.57016 15.2802 6.62158 17.0008L6.54162 17.0714L6.46963 17.1501C5.87151 17.8041 5.43355 18.2921 5.13672 18.6345C4.99012 18.8035 4.86426 18.9528 4.76646 19.0762C4.71886 19.1363 4.66218 19.21 4.6081 19.2881C4.60772 19.2887 4.60703 19.2896 4.60604 19.291C4.58464 19.3211 4.4256 19.5446 4.32465 19.8404C4.29237 19.9351 4.23176 20.1327 4.21847 20.3911C4.20601 20.6334 4.22435 21.1624 4.60293 21.6797C5.02608 22.2579 5.62173 22.4524 6.03129 22.4914C6.39209 22.5257 6.67262 22.4532 6.79266 22.4178C7.042 22.3443 7.22116 22.2375 7.27085 22.2079L7.27134 22.2076C7.3483 22.1618 7.41034 22.1185 7.44912 22.0905C7.58622 21.9915 7.72612 21.8697 7.82488 21.7821C8.05079 21.5816 8.36125 21.2891 8.71608 20.9478C10.1411 19.5771 12.6103 17.1003 14.448 15.2391C16.5309 13.2263 18.1319 11.5212 19.3042 10.0874C20.4559 8.67875 21.2895 7.41827 21.7108 6.30473C22.1179 5.22879 22.3423 3.65445 21.1496 2.46787C20.1691 1.49231 18.7658 1.39952 17.8297 1.43078C15.7692 1.4996 12.9283 2.32921 10.0768 3.3739C9.75003 3.49363 9.42002 3.61737 9.08765 3.74462L9.46977 3.29471L6.42102 0.705285L0.475627 7.70529ZM18.0437 4.64633C18.044 4.64613 18.0435 4.65084 18.0415 4.66104C18.0424 4.65162 18.0434 4.64652 18.0437 4.64633ZM18.6049 12.6955L6.28948 30.8784L9.60132 33.1216L21.9168 14.9387L18.6049 12.6955Z" stroke="#7568FE" stroke-width="3"/>
</svg>
