<svg width="16" height="16" viewBox="0 0 16 16" fill="none" xmlns="http://www.w3.org/2000/svg">
<g opacity="0.7" clip-path="url(#clip0_1783_1974)">
<path d="M8.21808 0C5.01808 0 2.3999 2.61818 2.3999 5.81818C2.3999 9.81818 7.56354 15.6364 7.78172 15.8545C7.9999 16.0727 8.36354 16.0727 8.58172 15.8545C8.7999 15.6364 13.9635 9.81818 13.9635 5.81818C13.9635 2.61818 11.4181 0 8.21808 0ZM8.21808 8.72727C6.61808 8.72727 5.30899 7.41818 5.30899 5.81818C5.30899 4.21818 6.61808 2.90909 8.21808 2.90909C9.81808 2.90909 11.1272 4.21818 11.1272 5.81818C11.1272 7.41818 9.81808 8.72727 8.21808 8.72727Z" fill="#333333"/>
</g>
<defs>
<clipPath id="clip0_1783_1974">
<rect width="16" height="16" fill="white"/>
</clipPath>
</defs>
</svg>
