<svg width="25" height="25" viewBox="0 0 25 25" fill="none" xmlns="http://www.w3.org/2000/svg">
<rect width="25" height="25" rx="4" fill="white"/>
<path d="M12.5 11.3008C11.6797 11.3008 11.0234 11.957 11.0234 12.75C11.0234 13.5703 11.6797 14.2266 12.5 14.2266C13.293 14.2266 13.9492 13.5703 13.9492 12.75C13.9492 11.957 13.293 11.3008 12.5 11.3008ZM15.8906 10.1797C15.7539 9.79688 15.4531 9.49609 15.0703 9.35938C14.4961 9.11328 13.1289 9.16797 12.5 9.16797C11.8438 9.16797 10.4766 9.11328 9.90234 9.35938C9.51953 9.49609 9.21875 9.79688 9.08203 10.1797C8.86328 10.7539 8.89062 12.1211 8.89062 12.75C8.89062 13.4062 8.86328 14.7734 9.08203 15.3477C9.21875 15.7305 9.51953 16.0312 9.90234 16.168C10.4766 16.4141 11.8438 16.3594 12.5 16.3594C13.1289 16.3594 14.4961 16.4141 15.0703 16.168C15.4531 16.0312 15.7539 15.7305 15.8906 15.3477C16.1367 14.7734 16.082 13.4062 16.082 12.75C16.082 12.1211 16.1367 10.7539 15.8906 10.1797ZM12.5 14.9922C11.2422 14.9922 10.2578 14.0078 10.2578 12.75C10.2578 11.5195 11.2422 10.5078 12.5 10.5078C13.7305 10.5078 14.7422 11.5195 14.7422 12.75V12.7773C14.7422 14.0078 13.7305 15.0195 12.5 15.0195V14.9922ZM14.8242 10.9453C14.5234 10.9453 14.3047 10.7266 14.3047 10.4258C14.3047 10.125 14.5234 9.90625 14.8242 9.90625C15.0977 9.90625 15.3438 10.125 15.3438 10.4258C15.3438 10.7266 15.0977 10.9453 14.8242 10.9453ZM17.3125 6.625H7.6875C6.94922 6.625 6.375 7.22656 6.375 7.9375V17.5625C6.375 18.3008 6.94922 18.875 7.6875 18.875H17.3125C18.0234 18.875 18.625 18.3008 18.625 17.5625V7.9375C18.625 7.22656 18.0234 6.625 17.3125 6.625ZM16.8203 14.5547C16.793 15.2656 16.6289 15.8945 16.1367 16.3867C15.6172 16.9062 14.9883 17.0703 14.3047 17.0977C13.5664 17.1523 11.4062 17.1523 10.6953 17.0977C9.98438 17.0703 9.35547 16.9062 8.86328 16.3867C8.34375 15.8945 8.17969 15.2656 8.15234 14.5547C8.09766 13.8438 8.09766 11.6836 8.15234 10.9453C8.17969 10.2617 8.34375 9.63281 8.86328 9.11328C9.35547 8.62109 9.98438 8.45703 10.6953 8.42969C11.4062 8.375 13.5664 8.375 14.3047 8.42969C14.9883 8.45703 15.6172 8.62109 16.1367 9.14062C16.6289 9.63281 16.793 10.2617 16.8203 10.9727C16.875 11.6836 16.875 13.8438 16.8203 14.5547Z" fill="#1B365D"/>
</svg>
