<svg width="25" height="25" viewBox="0 0 25 25" fill="none" xmlns="http://www.w3.org/2000/svg">
<rect width="25" height="25" rx="4" fill="white"/>
<path d="M18.4473 9.32812C19.0332 8.88867 19.5605 8.36133 19.9707 7.74609C19.4434 7.98047 18.8281 8.15625 18.2129 8.21484C18.8574 7.83398 19.3262 7.24805 19.5605 6.51562C18.9746 6.86719 18.3008 7.13086 17.627 7.27734C17.041 6.66211 16.25 6.31055 15.3711 6.31055C13.6719 6.31055 12.2949 7.6875 12.2949 9.38672C12.2949 9.62109 12.3242 9.85547 12.3828 10.0898C9.83398 9.94336 7.54883 8.71289 6.02539 6.86719C5.76172 7.30664 5.61523 7.83398 5.61523 8.41992C5.61523 9.47461 6.14258 10.4121 6.99219 10.9688C6.49414 10.9395 5.99609 10.8223 5.58594 10.5879V10.6172C5.58594 12.1113 6.64062 13.3418 8.04688 13.6348C7.8125 13.6934 7.51953 13.752 7.25586 13.752C7.05078 13.752 6.875 13.7227 6.66992 13.6934C7.05078 14.9238 8.19336 15.8027 9.54102 15.832C8.48633 16.6523 7.16797 17.1504 5.73242 17.1504C5.46875 17.1504 5.23438 17.1211 5 17.0918C6.34766 17.9707 7.95898 18.4688 9.7168 18.4688C15.3711 18.4688 18.4473 13.8105 18.4473 9.73828C18.4473 9.5918 18.4473 9.47461 18.4473 9.32812Z" fill="#1B365D"/>
</svg>
