<svg width="25" height="25" viewBox="0 0 25 25" fill="none" xmlns="http://www.w3.org/2000/svg">
<rect width="25" height="25" rx="4" fill="white"/>
<path d="M19.1641 9.14062C19.2552 9.48698 19.319 9.96094 19.3555 10.5625C19.4102 11.1641 19.4466 11.6836 19.4648 12.1211V12.75C19.4648 14.3906 19.3646 15.6029 19.1641 16.3867C18.9818 17.0612 18.5352 17.4987 17.8242 17.6992C17.4779 17.7904 16.8216 17.8633 15.8555 17.918C14.8893 17.9544 14.0052 17.9818 13.2031 18H12C8.88281 18 6.94141 17.8997 6.17578 17.6992C5.46484 17.4987 5.01823 17.0612 4.83594 16.3867C4.74479 16.0404 4.67188 15.5664 4.61719 14.9648C4.58073 14.3451 4.55339 13.8255 4.53516 13.4062V12.75C4.53516 11.1276 4.63542 9.92448 4.83594 9.14062C4.92708 8.8125 5.09115 8.52995 5.32812 8.29297C5.5651 8.05599 5.84766 7.89193 6.17578 7.80078C6.52214 7.70964 7.17839 7.64583 8.14453 7.60938C9.11068 7.55469 9.99479 7.51823 10.7969 7.5H12C15.1172 7.5 17.0586 7.60026 17.8242 7.80078C18.1523 7.89193 18.4349 8.05599 18.6719 8.29297C18.9089 8.52995 19.0729 8.8125 19.1641 9.14062ZM10.4688 14.9922L14.3789 12.75L10.4688 10.5352V14.9922Z" fill="#1B365D"/>
</svg>
