<svg width="22" height="24" viewBox="0 0 22 24" fill="none" xmlns="http://www.w3.org/2000/svg">
<path d="M18.734 23H3.266C2.98238 23.0001 2.70199 22.9398 2.44345 22.8232C2.1849 22.7066 1.9541 22.5364 1.76638 22.3238C1.57865 22.1112 1.43829 21.8611 1.3546 21.5901C1.27092 21.3191 1.24583 21.0334 1.281 20.752L3 7H19L20.719 20.752C20.7542 21.0334 20.7291 21.3191 20.6454 21.5901C20.5617 21.8611 20.4214 22.1112 20.2336 22.3238C20.0459 22.5364 19.8151 22.7066 19.5566 22.8232C19.298 22.9398 19.0176 23.0001 18.734 23Z" stroke="#24262B" stroke-width="2" stroke-miterlimit="10" stroke-linecap="square"/>
<path d="M7 10V5C7.00343 3.94019 7.42596 2.92476 8.17536 2.17536C8.92476 1.42596 9.94019 1.00343 11 1V1C12.0598 1.00343 13.0752 1.42596 13.8246 2.17536C14.574 2.92476 14.9966 3.94019 15 5V10" stroke="#24262B" stroke-width="2" stroke-miterlimit="10" stroke-linecap="square"/>
</svg>
